<?xml version="1.0" encoding="utf-8"?>
<!-- Generator: Adobe Illustrator 26.3.1, SVG Export Plug-In . SVG Version: 6.00 Build 0)  -->
<svg version="1.1" id="Layer_1" xmlns="http://www.w3.org/2000/svg" xmlns:xlink="http://www.w3.org/1999/xlink" x="0px" y="0px"
	 viewBox="0 0 82 93" style="enable-background:new 0 0 82 93;" xml:space="preserve">
<style type="text/css">
	.st0{opacity:0.5;}
	.st1{fill:url(#SVGID_1_);}
	.st2{fill:#10C67E;enable-background:new    ;}
	.st3{fill:#085936;}
	.st4{fill:url(#SVGID_00000050654826651446221280000011940981037705689008_);}
	.st5{fill:none;stroke:url(#SVGID_00000170992482469444219380000007868941525034475695_);}
	.st6{fill:#FFFFFF;}
	.st7{fill:#D9D9D9;}
	.st8{opacity:0.6;}
	.st9{fill:#33363B;stroke:#33363B;stroke-width:0.5;stroke-miterlimit:10;}
	.st10{fill:url(#SVGID_00000052066487094876847630000016563517922002909845_);}
	.st11{font-family:'Futura-Bold';}
	.st12{font-size:16.4841px;}
	.st13{opacity:0.2;fill:#FFFFFF;enable-background:new    ;}
</style>
<g class="st0">
	
		<linearGradient id="SVGID_1_" gradientUnits="userSpaceOnUse" x1="75.5334" y1="39.381" x2="6.4667" y2="39.381" gradientTransform="matrix(1 0 0 -1 0 94)">
		<stop  offset="0" style="stop-color:#F6EDFD"/>
		<stop  offset="0.6556" style="stop-color:#FBF0F1"/>
	</linearGradient>
	<path class="st1" d="M26.5,22.2h29.1c11,0,20,9,20,20V67c0,11-9,20-20,20H26.5c-11,0-20-9-20-20V42.2C6.5,31.2,15.4,22.2,26.5,22.2
		z"/>
</g>
<path class="st2" d="M28.7,22c0-11,9-20,20-20h12.9C70.6,2,78,9.4,78,18.4c0,3.8,0,7.9,0,12.1c0,11-9,20-20,20h-9.3
	c-11,0-20-9-20-20V22z"/>
<path class="st3" d="M32,22.9c0-8.8,7.2-16,16-16h11.4c7.6,0,13.7,6.1,13.7,13.7c0,3.3,0,7,0,10.8c0,8.8-7.2,16-16,16H48
	c-8.8,0-16-7.2-16-16V22.9z"/>
<g>
	
		<linearGradient id="SVGID_00000079482327903577347460000009848360439822931872_" gradientUnits="userSpaceOnUse" x1="78" y1="51.5238" x2="4" y2="51.5238" gradientTransform="matrix(1 0 0 -1 0 94)">
		<stop  offset="0" style="stop-color:#F6EDFD"/>
		<stop  offset="0.6556" style="stop-color:#FBF0F1"/>
	</linearGradient>
	<path style="fill:url(#SVGID_00000079482327903577347460000009848360439822931872_);" d="M53.3,2H20.4C11.4,2,4,9.2,4,18.2v48.6
		C4,75.7,11.4,83,20.4,83h41.1C70.6,83,78,75.7,78,66.8V26.3L53.3,2z"/>
	
		<linearGradient id="SVGID_00000158005858497509303520000000799816417737872031_" gradientUnits="userSpaceOnUse" x1="2.8308" y1="91.0388" x2="70.2307" y2="9.0542" gradientTransform="matrix(1 0 0 -1 0 94)">
		<stop  offset="0" style="stop-color:#FFFFFF"/>
		<stop  offset="1" style="stop-color:#FFFFFF;stop-opacity:0"/>
	</linearGradient>
	<path style="fill:none;stroke:url(#SVGID_00000158005858497509303520000000799816417737872031_);" d="M20.4,2.5h32.7l24.4,24v40.3
		c0,8.7-7.1,15.7-15.9,15.7H20.4c-8.8,0-15.9-7-15.9-15.7V18.2C4.5,9.5,11.6,2.5,20.4,2.5z"/>
</g>
<path class="st6" d="M48.1,39.6l1.5-1.6c0.8,0.8,1.5,1.6,2.1,2.6l-2,1C49.2,40.8,48.7,40.2,48.1,39.6z M52.4,42l-2,1
	c0.3,0.7,0.5,1.4,0.6,2.2h2.3C53.1,44,52.8,43,52.4,42z M35.8,38.2c1.5-0.9,3.3-1.4,5.2-1.4c2.2,0,4.1,0.7,5.8,1.8l1.5-1.7
	c-2-1.4-4.5-2.3-7.2-2.3c-2.4,0-4.6,0.7-6.5,1.8l-2.1-2.9L30,41.1h7.8L35.8,38.2z M51.1,46.8c0,1-0.2,2-0.6,3h2.4
	c0.3-0.9,0.4-1.9,0.5-3H51.1z M33.9,53.4l-1.5,1.6c-0.8-0.8-1.5-1.6-2.1-2.6l2-1C32.8,52.2,33.3,52.9,33.9,53.4z M29.6,51.1l2-1
	c-0.3-0.7-0.5-1.4-0.6-2.2h-2.3C28.9,49,29.2,50.1,29.6,51.1z M46.2,54.8c-1.5,0.9-3.3,1.4-5.2,1.4c-2.2,0-4.1-0.7-5.8-1.8l-1.5,1.7
	c2,1.4,4.5,2.3,7.2,2.3c2.4,0,4.6-0.7,6.5-1.8l2.1,2.9l2.4-7.6h-7.8L46.2,54.8z M30.9,46.3c0-1,0.2-2,0.6-3h-2.4
	c-0.3,0.9-0.5,1.9-0.5,3H30.9z"/>
<g>
	<path class="st6" d="M53.3,2L78,26.3H63.3c-5.5,0-10-4.5-10-10V2z"/>
</g>
<path class="st6" d="M58.8,67.6c1.5,0,2.7-1.2,2.7-2.7V37.9c0-1.5-1.2-2.7-2.7-2.7H32.1l10.7,32.4H58.8z"/>
<path class="st6" d="M50,59.5l-7.2,8.1l-2.6-8.1H50z"/>
<path class="st6" d="M23.2,27.1c-1.5,0-2.8,1.2-2.8,2.7v27.1c0,1.5,1.2,2.7,2.8,2.7H50L39.3,27.1H23.2z"/>
<path class="st7" d="M58.8,66.8c1.5,0,2.7-1.2,2.7-2.7V37.1c0-1.5-1.2-2.7-2.7-2.7H32.1l10.7,32.4H58.8z"/>
<path class="st3" d="M50,58.7l-7.2,8.1l-2.6-8.1H50z"/>
<g id="Dddq1Q.tif" class="st8">
	<g>
		<path class="st9" d="M51.4,42c2.4,0,4.7,0,7.1,0c0.3,0.1,0.4,0.4,0.4,0.7c0,4.3,0,8.6,0,12.9c0,0.5-0.2,0.7-0.7,0.7
			c-2.1,0-4.2,0-6.3,0c-0.7,0-1.2,0.2-1.6,0.8c-0.1,0.2-0.3,0.3-0.5,0.3c-0.2,0-0.4,0-0.5,0c-0.2,0-0.4-0.1-0.5-0.3
			c-0.4-0.6-0.9-0.8-1.6-0.8c-2.1,0-4.2,0-6.3,0c-0.3,0-0.6-0.1-0.7-0.4c0-4.5,0-9,0-13.5c0.1-0.2,0.2-0.3,0.4-0.4
			c2.4,0,4.7,0,7.1,0c0,0,0.1,0,0.1,0c0.6,0.1,1.1,0.4,1.6,0.8c0.1,0.1,0.1,0.2,0.2,0.2c0,0,0,0,0,0c0,0,0.1-0.1,0.1-0.1
			c0.4-0.4,0.8-0.7,1.4-0.8C51.2,42,51.3,42,51.4,42z M41.3,43.1c0,4,0,8.1,0,12.1c0.1,0,0.2,0,0.2,0c1.9,0,3.8,0,5.8,0
			c0.5,0,0.9,0.1,1.4,0.3c0.1,0.1,0.2,0.1,0.4,0.2c0-0.1,0-0.1,0-0.2c0-3.6,0-7.1,0-10.7c0-1.1-0.7-1.8-1.8-1.8c-1.9,0-3.8,0-5.8,0
			C41.4,43.1,41.4,43.1,41.3,43.1z M57.8,43.1c-0.1,0-0.1,0-0.2,0c-1.9,0-3.9,0-5.8,0c-1,0-1.7,0.7-1.7,1.7c0,3.6,0,7.1,0,10.7
			c0,0.1,0,0.1,0,0.2c0,0,0.1,0,0.1,0c0.5-0.4,1.1-0.5,1.7-0.5c1.9,0,3.8,0,5.7,0c0.1,0,0.1,0,0.2,0C57.8,51.1,57.8,47.1,57.8,43.1z
			"/>
		<path class="st9" d="M45.1,49.7c0.7,0,1.5,0,2.2,0c0.3,0,0.4-0.1,0.5-0.3c0.2-0.4-0.1-0.8-0.6-0.8c-1.4,0-2.9,0-4.3,0
			c-0.4,0-0.6,0.2-0.6,0.6c0,0.3,0.3,0.5,0.6,0.5C43.7,49.7,44.4,49.7,45.1,49.7z M45.2,51.9c0.7,0,1.5,0,2.2,0
			c0.3,0,0.6-0.2,0.6-0.6c0-0.3-0.2-0.5-0.6-0.5c-1.5,0-2.9,0-4.4,0c-0.2,0-0.4,0.1-0.5,0.3c-0.1,0.2-0.1,0.4,0,0.5
			c0.1,0.2,0.3,0.3,0.5,0.3C43.7,51.9,44.4,51.9,45.2,51.9z M45.1,53c-0.7,0-1.5,0-2.2,0c-0.3,0-0.4,0.1-0.5,0.3
			c-0.2,0.4,0.1,0.8,0.6,0.8c1.4,0,2.9,0,4.3,0c0.4,0,0.6-0.2,0.6-0.6c0-0.3-0.3-0.5-0.6-0.5C46.6,53,45.9,53,45.1,53z M45.2,46.6
			c0.1,0.1,0.2,0.2,0.3,0.4c0.3,0.3,0.6,0.3,0.8,0.1c0.2-0.2,0.2-0.6-0.1-0.8c-0.1-0.1-0.2-0.2-0.3-0.3c0.1-0.1,0.3-0.2,0.4-0.3
			c0.2-0.3,0.3-0.6,0-0.8c-0.2-0.2-0.6-0.2-0.8,0c-0.1,0.1-0.2,0.2-0.4,0.4c-0.1-0.1-0.2-0.3-0.3-0.4c-0.3-0.2-0.6-0.3-0.8,0
			c-0.2,0.2-0.2,0.6,0,0.8c0.1,0.1,0.2,0.2,0.4,0.4c-0.1,0.1-0.3,0.3-0.4,0.4c-0.2,0.2-0.2,0.6,0,0.8c0.2,0.2,0.6,0.2,0.8,0
			C44.9,46.9,45,46.7,45.2,46.6z"/>
		<path class="st9" d="M45.1,49.7c-0.7,0-1.4,0-2.2,0c-0.4,0-0.6-0.2-0.6-0.5c0-0.3,0.2-0.6,0.6-0.6c1.4,0,2.9,0,4.3,0
			c0.4,0,0.7,0.4,0.6,0.8c-0.1,0.2-0.3,0.3-0.5,0.3C46.6,49.7,45.9,49.7,45.1,49.7z"/>
		<path class="st9" d="M45.2,51.9c-0.7,0-1.5,0-2.2,0c-0.2,0-0.4-0.1-0.5-0.3c-0.1-0.2-0.1-0.4,0-0.5c0.1-0.2,0.3-0.3,0.5-0.3
			c1.5,0,2.9,0,4.4,0c0.3,0,0.6,0.2,0.6,0.5c0,0.3-0.2,0.5-0.6,0.6C46.6,51.9,45.9,51.9,45.2,51.9z"/>
		<path class="st9" d="M45.1,53c0.7,0,1.4,0,2.2,0c0.4,0,0.6,0.2,0.6,0.5c0,0.3-0.2,0.6-0.6,0.6c-1.4,0-2.9,0-4.3,0
			c-0.4,0-0.7-0.4-0.6-0.8c0.1-0.2,0.3-0.3,0.5-0.3C43.7,53,44.4,53,45.1,53z"/>
		<path class="st9" d="M45.2,46.6c-0.1,0.1-0.2,0.3-0.4,0.4c-0.2,0.2-0.6,0.2-0.8,0c-0.2-0.2-0.2-0.5,0-0.8c0.1-0.1,0.2-0.2,0.4-0.4
			c-0.1-0.1-0.2-0.2-0.4-0.4c-0.2-0.3-0.3-0.6,0-0.8c0.2-0.2,0.6-0.2,0.8,0c0.1,0.1,0.2,0.2,0.3,0.4c0.1-0.1,0.2-0.3,0.4-0.4
			c0.2-0.2,0.6-0.3,0.8,0c0.2,0.2,0.2,0.6,0,0.8c-0.1,0.1-0.2,0.2-0.4,0.3c0.1,0.1,0.2,0.2,0.3,0.3c0.3,0.3,0.3,0.6,0.1,0.8
			c-0.2,0.2-0.6,0.2-0.8-0.1C45.4,46.8,45.3,46.7,45.2,46.6z"/>
		<path class="st9" d="M54,48.6c0.7,0,1.4,0,2.1,0c0.4,0,0.6,0.2,0.6,0.5c0,0.3-0.2,0.6-0.6,0.6c-1.4,0-2.9,0-4.3,0
			c-0.4,0-0.6-0.2-0.6-0.6c0-0.3,0.3-0.5,0.6-0.5C52.6,48.6,53.3,48.6,54,48.6z"/>
		<path class="st9" d="M54,51.9c-0.7,0-1.4,0-2.2,0c-0.4,0-0.6-0.2-0.6-0.5c0-0.3,0.3-0.5,0.6-0.5c1.4,0,2.9,0,4.3,0
			c0.4,0,0.6,0.2,0.6,0.6c0,0.3-0.3,0.5-0.6,0.5C55.4,51.9,54.7,51.9,54,51.9z"/>
		<path class="st9" d="M54,53c0.7,0,1.4,0,2.1,0c0.4,0,0.6,0.2,0.6,0.5c0,0.3-0.2,0.6-0.6,0.6c-1.4,0-2.9,0-4.3,0
			c-0.4,0-0.6-0.2-0.6-0.6c0-0.3,0.3-0.5,0.6-0.5C52.5,53,53.3,53,54,53z"/>
		<path class="st9" d="M53.6,46.1c0.2-0.3,0.4-0.6,0.7-0.9c0.2-0.3,0.4-0.5,0.6-0.8c0.2-0.3,0.5-0.3,0.8-0.2
			c0.3,0.2,0.3,0.5,0.1,0.8c-0.5,0.7-1.1,1.4-1.6,2.1c-0.2,0.3-0.6,0.3-0.9,0.1c-0.3-0.3-0.7-0.7-1-1c-0.2-0.2-0.3-0.6,0-0.8
			c0.2-0.2,0.6-0.2,0.8,0C53.2,45.7,53.4,45.9,53.6,46.1z"/>
	</g>
</g>
<linearGradient id="SVGID_00000155854780816890855360000000624333604603474828_" gradientUnits="userSpaceOnUse" x1="18.4498" y1="65.1218" x2="46.3332" y2="33.9279" gradientTransform="matrix(1 0 0 -1 0 94)">
	<stop  offset="0" style="stop-color:#10CC82"/>
	<stop  offset="0.7812" style="stop-color:#0D9B63"/>
</linearGradient>
<path style="fill:url(#SVGID_00000155854780816890855360000000624333604603474828_);" d="M23.2,26.3c-1.5,0-2.8,1.2-2.8,2.7V56
	c0,1.5,1.2,2.7,2.8,2.7H50L39.3,26.3H23.2z"/>
<text transform="matrix(1 0 0 1 27.0015 48.9224)" class="st6 st11 st12">E</text>
<path class="st13" d="M42.5,34.4h16.4c1.5,0,2.7,1.2,2.7,2.7v16.2L42.5,34.4z"/>
</svg>
